HIERARCHY
ROOT Hips
{
	OFFSET 0.000000 100.481300 0.000000
	CHANNELS 6 Xposition Yposition Zposition Xrotation Yrotation Zrotation 
	JOINT Spine
	{
		OFFSET -0.279200 12.230698 -2.892100
		CHANNELS 3 Xrotation Yrotation Zrotation
		JOINT Spine1
		{
			OFFSET -0.232667 10.192268 -1.242267
			CHANNELS 3 Xrotation Yrotation Zrotation
			JOINT Spine1_split
			{
				OFFSET -0.232667 10.192268 -1.242267
				CHANNELS 3 Xrotation Yrotation Zrotation
				JOINT Spine2
				{
					OFFSET -0.232667 10.192268 -1.242267
					CHANNELS 3 Xrotation Yrotation Zrotation
					JOINT Neck
					{
						OFFSET -0.418800 17.814194 8.416900
						CHANNELS 3 Xrotation Yrotation Zrotation
						JOINT Head
						{
							OFFSET 0.000000 7.031097 3.806800
							CHANNELS 3 Xrotation Yrotation Zrotation
							JOINT HeadTop_End
							{
								OFFSET 0.000000 24.646606 12.978600
								CHANNELS 3 Xrotation Yrotation Zrotation
								End Site
								{
									OFFSET 0.000000 0.000000 0.000000
								}
							}
						}
					}
					JOINT LeftShoulder
					{
						OFFSET 8.476499 7.247704 -3.868750
						CHANNELS 3 Xrotation Yrotation Zrotation
						JOINT LeftShoulder_split
						{
							OFFSET 8.476499 7.247704 -3.868750
							CHANNELS 3 Xrotation Yrotation Zrotation
							JOINT LeftArm
							{
								OFFSET 9.308998 -2.777710 0.208600
								CHANNELS 3 Xrotation Yrotation Zrotation
								JOINT LeftForeArm
								{
									OFFSET 29.972298 0.000000 0.000000
									CHANNELS 3 Xrotation Yrotation Zrotation
									JOINT LeftHand
									{
										OFFSET 26.026505 0.000000 0.000000
										CHANNELS 3 Xrotation Yrotation Zrotation
										JOINT LeftHandThumb1
										{
											OFFSET 12.240501 -7.147949 9.207150
											CHANNELS 3 Xrotation Yrotation Zrotation
											JOINT LeftHandThumb2
											{
												OFFSET 4.138618 -2.389435 2.389433
												CHANNELS 3 Xrotation Yrotation Zrotation
												JOINT LeftHandThumb3
												{
													OFFSET 2.726913 -1.574387 1.574386
													CHANNELS 3 Xrotation Yrotation Zrotation
													JOINT LeftHandThumb4
													{
														OFFSET 3.941010 -2.275345 2.275342
														CHANNELS 3 Xrotation Yrotation Zrotation
														End Site
														{
															OFFSET 0.000000 0.000000 0.000000
														}
													}
												}
											}
										}
										JOINT LeftHandIndex1
										{
											OFFSET 24.424698 -1.985611 5.953459
											CHANNELS 3 Xrotation Yrotation Zrotation
											JOINT LeftHandIndex2
											{
												OFFSET 6.426697 0.000000 0.000000
												CHANNELS 3 Xrotation Yrotation Zrotation
												JOINT LeftHandIndex3
												{
													OFFSET 5.337898 0.000000 0.000000
													CHANNELS 3 Xrotation Yrotation Zrotation
													JOINT LeftHandIndex4
													{
														OFFSET 4.409401 0.000000 0.000000
														CHANNELS 3 Xrotation Yrotation Zrotation
														End Site
														{
															OFFSET 0.000000 0.000000 0.000000
														}
													}
												}
											}
										}
										JOINT LeftHandMiddle1
										{
											OFFSET 23.810104 0.000000 0.000000
											CHANNELS 3 Xrotation Yrotation Zrotation
											JOINT LeftHandMiddle2
											{
												OFFSET 7.176498 0.000000 0.000000
												CHANNELS 3 Xrotation Yrotation Zrotation
												JOINT LeftHandMiddle3
												{
													OFFSET 6.774902 0.000000 0.000000
													CHANNELS 3 Xrotation Yrotation Zrotation
													JOINT LeftHandMiddle4
													{
														OFFSET 5.403328 0.000000 0.000000
														CHANNELS 3 Xrotation Yrotation Zrotation
														End Site
														{
															OFFSET 0.000000 0.000000 0.000000
														}
													}
												}
											}
										}
										JOINT LeftHandRing1
										{
											OFFSET 22.908401 -0.839279 -6.020567
											CHANNELS 3 Xrotation Yrotation Zrotation
											JOINT LeftHandRing2
											{
												OFFSET 6.337502 0.000000 0.000000
												CHANNELS 3 Xrotation Yrotation Zrotation
												JOINT LeftHandRing3
												{
													OFFSET 5.779297 0.000000 0.000000
													CHANNELS 3 Xrotation Yrotation Zrotation
													JOINT LeftHandRing4
													{
														OFFSET 4.965698 0.000000 0.000000
														CHANNELS 3 Xrotation Yrotation Zrotation
														End Site
														{
															OFFSET 0.000000 0.000000 0.000000
														}
													}
												}
											}
										}
										JOINT LeftHandPinky1
										{
											OFFSET 20.037003 -1.530319 -10.950146
											CHANNELS 3 Xrotation Yrotation Zrotation
											JOINT LeftHandPinky2
											{
												OFFSET 5.254700 0.000000 0.000000
												CHANNELS 3 Xrotation Yrotation Zrotation
												JOINT LeftHandPinky3
												{
													OFFSET 4.810204 0.000000 0.000000
													CHANNELS 3 Xrotation Yrotation Zrotation
													JOINT LeftHandPinky4
													{
														OFFSET 3.647202 0.000000 0.000000
														CHANNELS 3 Xrotation Yrotation Zrotation
														End Site
														{
															OFFSET 0.000000 0.000000 0.000000
														}
													}
												}
											}
										}
									}
								}
							}
						}
					}
					JOINT RightShoulder
					{
						OFFSET -7.570500 7.247704 -3.868750
						CHANNELS 3 Xrotation Yrotation Zrotation
						JOINT RightShoulder_split
						{
							OFFSET -7.570500 7.247704 -3.868750
							CHANNELS 3 Xrotation Yrotation Zrotation
							JOINT RightArm
							{
								OFFSET -9.308998 -2.777710 0.208500
								CHANNELS 3 Xrotation Yrotation Zrotation
								JOINT RightForeArm
								{
									OFFSET -29.972300 0.000000 0.000000
									CHANNELS 3 Xrotation Yrotation Zrotation
									JOINT RightHand
									{
										OFFSET -26.026505 0.000000 0.000000
										CHANNELS 3 Xrotation Yrotation Zrotation
										JOINT RightHandThumb1
										{
											OFFSET -12.240601 -7.148026 9.207092
											CHANNELS 3 Xrotation Yrotation Zrotation
											JOINT RightHandThumb2
											{
												OFFSET -4.138618 -2.389435 2.389433
												CHANNELS 3 Xrotation Yrotation Zrotation
												JOINT RightHandThumb3
												{
													OFFSET -2.726974 -1.574417 1.574421
													CHANNELS 3 Xrotation Yrotation Zrotation
													JOINT RightHandThumb4
													{
														OFFSET -3.941010 -2.275345 2.275343
														CHANNELS 3 Xrotation Yrotation Zrotation
														End Site
														{
															OFFSET 0.000000 0.000000 0.000000
														}
													}
												}
											}
										}
										JOINT RightHandIndex1
										{
											OFFSET -24.424698 -1.985657 5.953444
											CHANNELS 3 Xrotation Yrotation Zrotation
											JOINT RightHandIndex2
											{
												OFFSET -6.426697 0.000000 0.000000
												CHANNELS 3 Xrotation Yrotation Zrotation
												JOINT RightHandIndex3
												{
													OFFSET -5.337898 0.000000 0.000000
													CHANNELS 3 Xrotation Yrotation Zrotation
													JOINT RightHandIndex4
													{
														OFFSET -4.409401 0.000000 0.000000
														CHANNELS 3 Xrotation Yrotation Zrotation
														End Site
														{
															OFFSET 0.000000 0.000000 0.000000
														}
													}
												}
											}
										}
										JOINT RightHandMiddle1
										{
											OFFSET -23.810097 0.000000 0.000000
											CHANNELS 3 Xrotation Yrotation Zrotation
											JOINT RightHandMiddle2
											{
												OFFSET -7.176498 0.000000 0.000000
												CHANNELS 3 Xrotation Yrotation Zrotation
												JOINT RightHandMiddle3
												{
													OFFSET -6.774902 0.000000 0.000000
													CHANNELS 3 Xrotation Yrotation Zrotation
													JOINT RightHandMiddle4
													{
														OFFSET -5.403328 0.000000 0.000000
														CHANNELS 3 Xrotation Yrotation Zrotation
														End Site
														{
															OFFSET 0.000000 0.000000 0.000000
														}
													}
												}
											}
										}
										JOINT RightHandRing1
										{
											OFFSET -22.908302 -0.839325 -6.020576
											CHANNELS 3 Xrotation Yrotation Zrotation
											JOINT RightHandRing2
											{
												OFFSET -6.337502 0.000000 0.000000
												CHANNELS 3 Xrotation Yrotation Zrotation
												JOINT RightHandRing3
												{
													OFFSET -5.779297 0.000000 0.000000
													CHANNELS 3 Xrotation Yrotation Zrotation
													JOINT RightHandRing4
													{
														OFFSET -4.965698 0.000000 0.000000
														CHANNELS 3 Xrotation Yrotation Zrotation
														End Site
														{
															OFFSET 0.000000 0.000000 0.000000
														}
													}
												}
											}
										}
										JOINT RightHandPinky1
										{
											OFFSET -20.037003 -1.530334 -10.950259
											CHANNELS 3 Xrotation Yrotation Zrotation
											JOINT RightHandPinky2
											{
												OFFSET -5.254700 0.000000 0.000000
												CHANNELS 3 Xrotation Yrotation Zrotation
												JOINT RightHandPinky3
												{
													OFFSET -4.810204 0.000000 0.000000
													CHANNELS 3 Xrotation Yrotation Zrotation
													JOINT RightHandPinky4
													{
														OFFSET -3.647202 0.000000 0.000000
														CHANNELS 3 Xrotation Yrotation Zrotation
														End Site
														{
															OFFSET 0.000000 0.000000 0.000000
														}
													}
												}
											}
										}
									}
								}
							}
						}
					}
				}
			}
		}
	}
	JOINT LeftUpLeg
	{
		OFFSET 15.427100 -6.655098 0.678600
		CHANNELS 3 Xrotation Yrotation Zrotation
		JOINT LeftLeg
		{
			OFFSET 4.081073 -39.591068 13.024000
			CHANNELS 3 Xrotation Yrotation Zrotation
			JOINT LeftFoot
			{
				OFFSET -4.081074 -37.707932 -15.979700
				CHANNELS 3 Xrotation Yrotation Zrotation
				JOINT LeftToeBase
				{
					OFFSET 5.346399 -15.068900 20.645000
					CHANNELS 3 Xrotation Yrotation Zrotation
					JOINT LeftToe_End
					{
						OFFSET 2.754700 0.931300 11.300900
						CHANNELS 3 Xrotation Yrotation Zrotation
						End Site
						{
							OFFSET 0.000000 0.000000 0.000000
						}
					}
				}
			}
		}
	}
	JOINT RightUpLeg
	{
		OFFSET -15.569500 -6.655098 0.678600
		CHANNELS 3 Xrotation Yrotation Zrotation
		JOINT RightLeg
		{
			OFFSET -4.081825 -39.591045 13.023800
			CHANNELS 3 Xrotation Yrotation Zrotation
			JOINT RightFoot
			{
				OFFSET 4.081824 -37.707954 -15.979600
				CHANNELS 3 Xrotation Yrotation Zrotation
				JOINT RightToeBase
				{
					OFFSET -5.346400 -15.068900 20.645000
					CHANNELS 3 Xrotation Yrotation Zrotation
					JOINT RightToe_End
					{
						OFFSET -2.754700 0.931300 11.300900
						CHANNELS 3 Xrotation Yrotation Zrotation
						End Site
						{
							OFFSET 0.000000 0.000000 0.000000
						}
					}
				}
			}
		}
	}
}
MOTION
Frames: 4
Frame Time: 0.016667
0.839099 94.305077 -2.525351 -0.285116 -0.017857 -2.482502 0.561179 -1.375345 0.480498 0.884704 -0.154384 2.637805 0.000000 0.000000 0.000000 0.868038 0.313564 2.550323 1.242739 -0.362780 0.178330 1.579608 0.543348 -5.747759 0.000000 0.000000 -0.000000 0.000018 -0.000019 -0.312853 0.000000 0.000000 0.000000 3.284674 -25.851918 -73.291570 2.210821 -20.459237 0.701209 -31.889795 -2.761251 2.775370 15.772754 2.736675 17.226130 -2.095493 31.047783 -7.361417 -6.566815 4.137875 -2.408523 0.000000 0.000001 -0.000002 2.369897 3.655774 -8.470953 -2.148821 2.464579 -18.676468 -1.905128 4.814348 -14.172561 -0.000001 0.000001 0.000002 -1.977819 5.701678 -13.647599 0.262677 5.095095 -26.987862 -0.653765 1.140650 -11.787455 -0.000000 0.000002 0.000001 -3.264381 8.554505 -11.754377 4.032602 4.051321 -33.265224 2.108316 3.155439 -15.593166 -0.000001 -0.000000 0.000001 -6.476556 11.333631 -23.247083 10.714836 2.545227 -34.824706 6.414205 3.075320 -15.312929 0.000001 -0.000001 0.000000 0.000036 -0.000016 0.312819 0.000000 0.000000 0.000000 5.327959 -3.221400 75.188737 -0.286936 18.989999 0.139590 -7.879831 -10.226556 5.197528 15.779554 -2.730593 -17.214052 -2.090655 -31.045904 7.368380 -6.565837 -4.138827 2.408535 -0.000001 0.000002 0.000002 2.372142 -3.655208 8.489141 -2.148905 -2.464950 18.674620 -1.906870 -4.812197 14.174161 0.000001 0.000001 -0.000001 -1.976883 -5.701815 13.665519 0.262182 -5.094026 26.988705 -0.653536 -1.141633 11.787574 -0.000001 0.000000 -0.000002 -3.260104 -8.214669 11.646173 4.031938 -4.048818 33.264770 2.108257 -3.155415 15.594707 -0.000001 0.000001 -0.000003 -6.475841 -11.337686 23.265610 10.714913 -2.543898 34.823764 6.414501 -3.075690 15.312304 0.000000 -0.000000 0.000002 -15.943139 12.050726 14.239034 21.067802 10.272176 0.266833 -3.447483 4.048064 -9.114712 -0.473463 -0.000553 -0.000008 -0.000000 -0.000001 -0.000000 -3.096202 -3.915773 1.800955 16.103303 -2.534036 3.800155 -12.562611 -0.393012 -2.710907 -0.586281 -0.000183 -0.000007 0.000000 0.000000 0.000000 
0.863006 94.141144 -2.713926 -0.837769 -1.559795 -2.471073 0.963032 -1.398953 0.377192 0.988844 -0.196637 2.609326 0.000000 0.000000 0.000000 0.973522 0.242327 2.527079 0.800251 -0.229904 0.204901 1.905007 1.915862 -5.833861 0.000000 -0.000000 0.000000 0.977385 0.015267 -0.358209 0.000000 0.000000 0.000000 4.946917 -23.826282 -70.973206 1.945034 -20.731311 0.649411 -36.056920 -1.976703 -1.857864 15.407478 1.746459 17.954498 -2.095515 31.047789 -7.361436 -6.566795 4.137840 -2.408507 -0.000000 0.000000 0.000001 1.840534 3.540807 -7.141718 -2.148893 2.464589 -18.676582 -1.905114 4.814334 -14.172567 -0.000000 0.000001 0.000000 -2.530931 5.645459 -12.530525 0.262687 5.095125 -26.987834 -0.653762 1.140650 -11.787459 -0.000000 0.000002 0.000001 -4.418427 8.570463 -10.379993 4.032627 4.051345 -33.265200 2.108330 3.155442 -15.593166 0.000000 0.000000 -0.000001 -9.388729 12.326861 -21.725730 10.714855 2.545265 -34.824659 6.414203 3.075310 -15.312926 0.000000 0.000000 0.000000 0.066989 0.243802 0.207523 0.000000 0.000000 0.000000 5.191603 -0.509940 74.572866 -0.334874 18.540945 0.163059 -8.606972 -11.105650 5.741626 15.705849 -2.715098 -17.123154 -2.084066 -31.018758 7.320477 -6.508176 -4.256360 2.326862 -0.000000 0.000001 0.000001 2.384403 -3.660979 8.652040 -2.108225 -2.555854 19.242146 -1.875051 -4.904195 14.730949 0.000000 0.000001 -0.000001 -1.938396 -5.830313 14.312345 0.313798 -5.184771 27.595002 -0.635376 -1.215596 12.220386 -0.000002 0.000001 0.000001 -3.089759 -8.298425 13.039101 4.090663 -4.145257 34.052946 2.131811 -3.250248 16.222603 0.000000 0.000000 -0.000002 -6.399153 -12.088547 25.656994 10.741965 -2.614785 35.856888 6.434739 -3.169143 16.189490 0.000000 0.000000 -0.000001 -15.393853 13.251247 14.894057 21.602835 11.607478 0.307921 -3.936260 2.967243 -9.714326 -0.473492 -0.000532 -0.000018 -0.000000 -0.000001 -0.000000 -3.829808 -3.835249 1.709984 17.423988 -2.105803 3.696740 -11.914804 1.223497 -2.696153 -0.607603 -0.000175 -0.033433 0.000000 0.000001 0.000000 
0.933089 93.734390 -3.131814 -1.535137 -3.483952 -2.559819 2.025184 -1.481059 0.179041 1.261821 -0.310409 2.528742 0.000000 0.000000 0.000000 1.249909 0.054709 2.460124 0.302906 0.013835 0.261823 1.321120 3.847865 -5.697075 0.000000 0.000000 0.000000 1.986222 0.122394 -0.120703 0.000000 0.000000 0.000000 8.094365 -24.899069 -68.198517 1.185695 -21.611470 0.480244 -46.872791 -1.105418 -4.618164 14.460940 -0.788089 19.800011 -2.095509 31.047735 -7.361377 -6.566819 4.137867 -2.408516 -0.000000 -0.000000 0.000000 0.457204 3.136088 -3.650719 -2.148838 2.464595 -18.676536 -1.905142 4.814319 -14.172561 0.000000 0.000000 -0.000004 -3.994988 5.400555 -9.596932 0.262666 5.095097 -26.987838 -0.653782 1.140643 -11.787419 0.000001 0.000001 0.000001 -7.324065 8.382269 -6.964744 4.032600 4.051314 -33.265224 2.108320 3.155462 -15.593185 0.000000 -0.000001 0.000002 -15.986893 14.066117 -18.223904 10.714840 2.545244 -34.824693 6.414193 3.075333 -15.312908 0.000001 0.000001 0.000002 0.253463 0.912355 -0.080289 0.000000 0.000000 0.000000 3.636565 1.596724 74.135208 -0.350376 17.651424 0.182513 -7.428756 -12.080562 7.196920 15.498696 -2.672573 -16.866920 -2.065265 -30.942389 7.184805 -6.345248 -4.590294 2.096286 -0.000001 0.000001 -0.000002 2.425222 -3.676033 9.111004 -1.989620 -2.809128 20.839809 -1.781208 -5.160889 16.298348 0.000001 0.000000 -0.000001 -1.823641 -6.185065 16.114515 0.463921 -5.436904 29.301751 -0.580747 -1.424449 13.448710 0.000000 -0.000000 0.000001 -2.610786 -8.509701 16.860706 4.262496 -4.409928 36.248169 2.204039 -3.515781 17.990022 0.000001 -0.000000 0.000000 -6.022010 -13.997715 32.140852 10.830955 -2.809678 38.689671 6.502458 -3.428628 18.632015 0.000000 0.000000 0.000000 -15.654903 16.285601 16.038415 22.678105 11.417908 0.235390 -4.674645 1.805812 -9.716397 -0.473471 -0.000547 -0.000007 -0.000000 -0.000001 -0.000000 -5.492893 -3.809357 1.565849 20.216086 -1.207538 3.743072 -10.917659 2.629361 -2.786618 -1.891330 0.005251 -0.242877 -0.000000 0.000000 0.000000 
1.042543 93.227768 -3.673156 -2.263074 -6.168639 -2.811500 3.530634 -1.631503 -0.014095 1.649033 -0.475935 2.403264 0.000000 0.000000 0.000000 1.641465 -0.210254 2.353476 -0.093892 0.283679 0.336393 0.006975 6.702318 -5.432572 -0.000000 -0.000000 -0.000000 3.031711 0.333338 0.350523 0.000000 0.000000 0.000000 12.040975 -27.172067 -65.359678 -0.019238 -23.409189 0.139582 -61.652798 0.361627 -5.512447 13.147949 -4.206716 22.246763 -2.095492 31.047786 -7.361490 -6.566830 4.137871 -2.408514 -0.000003 0.000001 0.000001 -1.447961 2.315618 1.244512 -2.148823 2.464605 -18.676509 -1.905126 4.814306 -14.172594 0.000001 0.000000 -0.000000 -6.062570 4.814488 -5.487613 0.262669 5.095130 -26.987833 -0.653754 1.140645 -11.787443 0.000000 -0.000001 -0.000003 -11.103925 7.652460 -2.608550 4.032586 4.051319 -33.265221 2.108321 3.155451 -15.593149 0.000001 -0.000000 -0.000001 -22.798932 15.170101 -14.593094 10.714844 2.545239 -34.824655 6.414179 3.075349 -15.312926 -0.000000 0.000003 -0.000000 0.541578 1.910655 -0.510205 0.000000 0.000000 0.000000 1.015076 3.562545 73.753680 -2.144228 16.565212 0.812401 -3.019896 -13.043815 9.267856 15.179377 -2.609881 -16.470079 -2.035343 -30.824128 6.974164 -6.093348 -5.113514 1.739124 -0.000000 -0.000001 -0.000001 2.488010 -3.698794 9.820461 -1.794576 -3.192405 23.310872 -1.623938 -5.551238 18.722879 -0.000001 0.000000 -0.000003 -1.627342 -6.716563 18.865539 0.709960 -5.816757 31.942353 -0.486933 -1.747737 15.366735 0.000003 0.000000 0.000000 -1.876422 -8.740760 22.578556 4.547646 -4.801537 39.597004 2.333557 -3.922246 20.723094 -0.000001 -0.000000 -0.000000 -5.077295 -16.447140 41.729020 11.004878 -3.099511 42.922732 6.638472 -3.820303 22.356703 0.000000 0.000000 -0.000000 -16.492117 20.557483 17.612228 23.888867 9.422958 0.079806 -5.468345 1.867900 -9.129209 -0.473479 -0.000505 -0.000013 0.000000 -0.000001 -0.000000 -7.802216 -3.758288 1.011015 23.416557 0.740431 4.082477 -9.998184 3.550432 -1.376571 -2.462613 0.044769 -1.350816 0.000000 -0.000000 0.000000 
